<svg width="467" height="313" viewBox="0 0 467 313" fill="none" xmlns="http://www.w3.org/2000/svg">
  <path d="M188.717 76.6996C188.326 77.3434 188.077 78.1042 188.012 78.9667C187.839 81.3633 189.583 83.7537 191.918 84.3174C196.948 85.5342 200.447 78.7141 196.363 75.5198C193.785 73.5082 190.224 74.2137 188.717 76.6996Z" fill="white"/>
  <path d="M382.806 302.817C381.602 303.458 380.622 304.539 380.213 305.953C378.682 311.227 385.807 314.723 389.081 310.414C390.569 308.454 390.769 305.571 389.01 303.698C387.328 301.906 384.766 301.773 382.806 302.817Z" fill="white"/>
  <path d="M1 88.5074C10.155 88.7569 19.8484 89.0865 27.7124 83.5725C33.2584 79.682 36.8594 73.4041 38.358 66.7966C41.3753 53.48 37.782 36.1218 24.8917 29.1354C18.3625 25.596 9.83369 26.5109 7.04099 34.3444C3.87833 43.2068 10.8502 52.3926 17.7279 57.3027C23.6022 61.4921 30.6524 63.7747 37.7666 64.9915C50.6329 67.1909 65.8378 65.7893 74.1241 54.3979C78.218 48.7669 78.7478 43.0589 78.9758 36.3713" stroke="white" stroke-width="1.54021" stroke-miterlimit="10"/>
  <path d="M467 88.1643L401.741 91.3663L431.624 153.631L388.483 103.437L358.193 166.891L365.139 101.72L302 117.961L349.254 83.0086L305.362 43.6899L364.912 62.3802L365.747 0L387.22 57.3824L437.682 19.7963L399.796 75.2775L467 88.1643Z" fill="#EFDDA2"/>
</svg>
