<svg width="390" height="1176" viewBox="0 0 390 1176" fill="none" xmlns="http://www.w3.org/2000/svg" xmlns:xlink="http://www.w3.org/1999/xlink">
  <path d="M194 274L-87 1176H475L194 274L-87 1176H475L194 274Z" fill="#0A837C"/>
  <path d="M193.053 50.3143L6.14932 671.579H379.958L193.053 50.3143L6.14932 671.579H379.958L193.053 50.3143Z" fill="#0A837C"/>
  <path d="M160.097 183.318C160.463 186.534 160.605 190.385 161.874 193.391C162.703 195.363 164.714 196.783 167.123 195.412C169.597 194.004 169.267 189.451 169.098 186.79C168.396 175.756 167.284 166.675 166.141 152.64C166.048 151.488 165.654 150.345 164.982 149.406C163.473 147.287 160.59 147.755 159.037 149.538C158.255 150.435 157.925 151.485 157.925 153.429C157.925 158.703 158.504 164.035 158.908 169.312C159.265 173.985 159.567 178.661 160.097 183.318Z" fill="#E1A49E"/>
  <path d="M151.638 169.919C148.422 170.285 144.572 170.427 141.565 171.696C139.594 172.525 138.174 174.536 139.544 176.945C140.952 179.419 145.505 179.089 148.17 178.919C159.204 178.217 168.285 177.105 182.319 175.962C183.471 175.87 184.614 175.476 185.553 174.804C187.673 173.295 187.205 170.411 185.421 168.859C184.525 168.076 183.474 167.747 181.53 167.747C176.257 167.747 170.925 168.326 165.648 168.729C160.975 169.087 156.296 169.389 151.638 169.919Z" fill="#E1A49E"/>
  <path d="M153.031 178.192C151.016 180.725 148.395 183.549 147.166 186.571C146.358 188.552 146.777 190.979 149.448 191.712C152.193 192.467 155.181 189.014 156.943 187.012C164.249 178.71 169.884 171.505 178.999 160.773C179.747 159.892 180.277 158.804 180.468 157.668C180.899 155.102 178.53 153.395 176.171 153.555C174.985 153.635 174.008 154.144 172.634 155.521C168.904 159.251 165.543 163.428 162.099 167.445C159.041 171.003 155.948 174.527 153.031 178.192Z" fill="#E1A49E"/>
  <path d="M254.147 36.5511C253.38 37.5953 252.832 38.8645 252.595 40.3369C251.933 44.4215 254.57 48.7957 258.491 50.1172C266.94 52.9666 273.985 41.7878 267.452 35.6886C263.33 31.8411 257.111 32.5126 254.147 36.5511Z" fill="#BFD9D0"/>
  <path d="M225.655 156.416C224.887 157.461 224.339 158.73 224.102 160.202C223.44 164.287 226.077 168.661 229.998 169.982C238.447 172.832 245.492 161.653 238.959 155.554C234.84 151.706 228.618 152.378 225.655 156.416Z" fill="#97C2D1"/>
  <path d="M158.369 431.267C157.371 430.823 156.225 430.598 154.968 430.666C151.481 430.854 148.349 433.814 147.964 437.286C147.132 444.765 157.614 448.566 161.474 442.082C163.905 437.995 162.232 432.986 158.369 431.267Z" fill="white"/>
  <path d="M170.173 438.792C169.175 438.349 168.029 438.124 166.773 438.192C163.286 438.38 160.153 441.34 159.768 444.812C158.936 452.291 169.419 456.092 173.278 449.608C175.706 445.523 174.036 440.511 170.173 438.792Z" fill="#F2BB91"/>
  <path d="M183.758 441.669C182.76 441.226 181.614 441.001 180.358 441.069C176.87 441.257 173.738 444.217 173.353 447.689C172.521 455.168 183.004 458.969 186.863 452.485C189.294 448.397 187.621 443.388 183.758 441.669Z" fill="#1D1D1B"/>
  <path d="M197.617 440.092C196.619 439.649 195.473 439.424 194.216 439.492C190.729 439.68 187.596 442.64 187.211 446.111C186.38 453.591 196.862 457.392 200.722 450.908C203.152 446.82 201.48 441.811 197.617 440.092Z" fill="#FC3762"/>
  <path d="M174.121 640.463C175.184 640.214 176.235 639.703 177.196 638.886C179.86 636.628 180.569 632.38 178.779 629.38C174.922 622.917 164.273 626.223 165.117 633.72C165.647 638.446 170.006 641.428 174.121 640.463Z" fill="#97C2D1"/>
  <path d="M187.697 644.868C188.759 644.619 189.81 644.108 190.771 643.291C193.435 641.033 194.144 636.785 192.354 633.785C188.498 627.322 177.849 630.628 178.693 638.125C179.222 642.851 183.581 645.832 187.697 644.868Z" fill="white"/>
  <path d="M160.537 642.114C161.599 641.865 162.65 641.354 163.611 640.537C166.276 638.279 166.984 634.031 165.194 631.031C161.338 624.568 150.689 627.874 151.533 635.371C152.063 640.097 156.421 643.079 160.537 642.114Z" fill="#FC3762"/>
  <path d="M146.659 645.3C147.722 645.05 148.773 644.539 149.734 643.722C152.398 641.464 153.107 637.217 151.317 634.216C147.46 627.754 136.811 631.059 137.655 638.557C138.185 643.282 142.544 646.264 146.659 645.3Z" fill="black"/>
  <path d="M136.719 655.942C137.782 655.693 138.832 655.182 139.793 654.365C142.458 652.107 143.166 647.859 141.377 644.859C137.52 638.396 126.871 641.702 127.715 649.199C128.245 653.925 132.603 656.907 136.719 655.942Z" fill="#BFD9D0"/>
  <path d="M111.999 245.668C138.965 248.367 168.9 241.79 193.99 231.766C215.26 223.267 234.738 209.393 246.453 189.361" stroke="black" stroke-width="1.54021" stroke-miterlimit="10"/>
  <path d="M146.567 239.122C145.939 239.985 145.489 241.029 145.295 242.243C144.756 245.61 146.934 249.204 150.168 250.289C157.133 252.621 162.915 243.404 157.524 238.389C154.127 235.226 149.004 235.789 146.567 239.122Z" fill="white"/>
  <path d="M187.943 227.078C187.315 227.94 186.865 228.985 186.671 230.198C186.132 233.565 188.31 237.16 191.544 238.244C198.509 240.576 204.291 231.36 198.9 226.345C195.5 223.184 190.377 223.748 187.943 227.078Z" fill="white"/>
  <path d="M228.429 200.836C227.801 201.698 227.351 202.743 227.157 203.956C226.618 207.323 228.796 210.918 232.03 212.002C238.995 214.334 244.777 205.118 239.386 200.103C235.985 196.942 230.863 197.506 228.429 200.836Z" fill="white"/>
  <path d="M110.899 59.7959C109.642 60.3288 108.573 61.3207 108.041 62.6915C106.051 67.8081 112.84 71.9205 116.481 67.9128C118.135 66.0923 118.588 63.2398 116.998 61.216C115.483 59.2846 112.945 58.9303 110.899 59.7959Z" fill="white"/>
  <path d="M124.958 143.103C123.701 143.636 122.632 144.627 122.099 145.998C120.109 151.115 126.899 155.227 130.54 151.219C132.194 149.399 132.647 146.547 131.057 144.523C129.542 142.591 127.003 142.234 124.958 143.103Z" fill="white"/>
  <path d="M92.0344 272.908C90.7775 273.441 89.7086 274.433 89.1757 275.804C87.1858 280.92 93.975 285.033 97.6161 281.025C99.2702 279.205 99.7231 276.352 98.1336 274.328C96.618 272.4 94.0797 272.043 92.0344 272.908Z" fill="white"/>
  <path d="M302.744 207.32C301.487 207.853 300.418 208.845 299.885 210.216C297.895 215.332 304.685 219.445 308.326 215.437C309.98 213.616 310.433 210.764 308.843 208.74C307.331 206.809 304.789 206.451 302.744 207.32Z" fill="white"/>
  <path d="M341.416 473.742C340.159 474.275 339.09 475.267 338.557 476.638C336.567 481.754 343.356 485.867 346.997 481.859C348.651 480.038 349.104 477.186 347.515 475.162C345.999 473.231 343.461 472.877 341.416 473.742Z" fill="white"/>
  <path d="M291.55 76.6489C303.357 53.7244 313.658 37.9589 332.772 20.5607" stroke="white" stroke-width="1.54021" stroke-miterlimit="10"/>
  <path d="M325.2 58.8286C341.243 36.5387 365.8 13.87 383.938 1.02466" stroke="white" stroke-width="1.54021" stroke-miterlimit="10"/>
  <path d="M320.919 112.24C335.794 79.4983 363.247 47.0338 384.77 31.5239" stroke="white" stroke-width="1.54021" stroke-miterlimit="10"/>
  <path d="M88.3104 673.245L80.9636 714.976L67.8626 697.463L48.4006 709.927L58.2025 665.242C65.9651 668.129 76.0627 671.043 88.3104 673.245Z" fill="#9F99AB"/>
  <path d="M140.508 676.874L140.822 717.197L124.77 702.346L107.886 718.124L109.309 676.021C118.834 676.855 129.252 677.21 140.508 676.874Z" fill="#FC3762"/>
  <path d="M254.659 700.183L235.243 690.126L223.149 709.822L212.811 666.595C222.431 664.275 232.403 661.456 242.713 658.071L254.659 700.183Z" fill="#EFDDA2"/>
  <path d="M359.71 657.883L339.038 650.758L329.941 672.004L313.421 630.738C322.604 627.045 332.057 622.803 341.764 617.955L359.71 657.883Z" fill="#F1DED3"/>
  <path d="M195.062 670.787L197.594 713.063L180.79 699.065L164.748 715.702L164.018 675.432C173.856 674.446 184.213 672.934 195.062 670.787Z" fill="#BFD9D0"/>
  <path d="M295.403 638.643L308.39 678.953L288.63 669.586L277.241 689.695L266.497 650.878C275.778 647.471 285.432 643.424 295.403 638.643Z" fill="#97C2D1"/>
  <path d="M69.4395 429.455C97.0123 459.403 106.201 466.919 129.751 486.763C187.093 535.082 255.303 570.834 331.691 572.035C338.455 572.143 345.226 571.989 351.978 571.576" stroke="black" stroke-width="1.54021" stroke-miterlimit="10"/>
  <path d="M81.9984 445.143C81.1729 445.954 80.5044 446.995 80.0824 448.264C78.9118 451.776 80.6122 456.011 83.8836 457.742C90.9347 461.47 98.7528 452.613 93.8642 446.292C90.7807 442.303 85.1928 442.005 81.9984 445.143Z" fill="white"/>
  <path d="M155.337 505.926C154.512 506.736 153.843 507.778 153.421 509.047C152.251 512.558 153.951 516.794 157.222 518.525C164.273 522.252 172.092 513.396 167.203 507.075C164.119 503.086 158.535 502.787 155.337 505.926Z" fill="white"/>
  <path d="M116.243 474.583C115.418 475.393 114.749 476.434 114.327 477.703C113.157 481.215 114.857 485.451 118.129 487.182C125.18 490.909 132.998 482.053 128.109 475.732C125.029 471.746 119.441 471.444 116.243 474.583Z" fill="white"/>
  <path d="M203.188 533.628C202.363 534.439 201.694 535.48 201.272 536.749C200.102 540.261 201.802 544.496 205.073 546.227C212.124 549.955 219.942 541.098 215.054 534.777C211.97 530.788 206.383 530.489 203.188 533.628Z" fill="white"/>
  <path d="M262.622 555.789C261.796 556.599 261.128 557.64 260.706 558.909C259.535 562.421 261.235 566.657 264.507 568.388C271.558 572.115 279.376 563.259 274.487 556.938C271.404 552.952 265.819 552.65 262.622 555.789Z" fill="white"/>
  <path d="M318.531 564.352C317.706 565.163 317.037 566.204 316.615 567.473C315.445 570.985 317.145 575.22 320.416 576.951C327.467 580.679 335.285 571.822 330.397 565.501C327.313 561.512 321.725 561.213 318.531 564.352Z" fill="white"/>
  <path d="M69.6243 136.347L66.0603 113.524L49.1149 127.186L47.7688 125.517L64.7141 111.855L44.4111 104.012L45.1843 102.01L65.4873 109.856L61.6522 85.2925L63.7715 84.9629L67.6066 109.523L84.5489 95.8645L85.8951 97.5341L69.0575 111.106L93.3527 118.826L92.7028 120.868L68.158 113.072L71.7436 136.018L69.6243 136.347Z" fill="white"/>
  <path d="M146.216 574.404L156.609 563.878L143.126 560.354L143.471 559.026L156.957 562.55L153.267 549.107L154.591 548.744L158.282 562.187L169.47 550.86L170.446 551.824L159.258 563.151L172.744 566.675L172.396 568.003L158.996 564.5L164.273 579.949L162.973 580.392L157.644 564.787L147.192 575.368L146.216 574.404Z" fill="#97C2D1"/>
  <path d="M12.7848 649.052C37.6315 659.075 63.1373 668.815 89.7274 673.07C145.806 682.04 204.861 670.513 258.235 652.908C300.092 639.102 341.422 621.315 376.388 594.045" stroke="black" stroke-width="1.54021" stroke-miterlimit="10"/>
  <path d="M322.449 537.374C323.562 538.234 329.063 540.858 329.063 540.858C329.063 540.858 324.618 541.323 323.907 541.41C320.33 541.847 316.704 542.672 313.556 544.493C309.989 546.557 307.938 549.785 305.815 553.201C304.974 554.554 304.327 555.392 303.511 556.759C303.046 557.539 302.365 558.829 301.37 560.545C301.746 556.393 302.017 551.938 301.589 547.783C300.81 540.196 295.302 535.511 289.233 531.571C291.279 531.26 292.671 531.029 293.198 530.933C294.31 530.727 295.718 530.449 296.811 530.166C298.853 529.636 300.656 529.254 302.51 528.235C308.791 524.785 311.483 518.152 315.352 512.426C315.235 514.573 315.149 515.503 315.087 516.406C314.819 520.376 314.619 524.433 315.706 528.309C316.791 532.181 319.311 534.947 322.449 537.374Z" fill="#EFDDA2"/>
  <path d="M236.036 489.634C245.191 489.883 254.885 490.213 262.749 484.699C268.295 480.809 271.896 474.531 273.395 467.923C276.412 454.607 272.819 437.248 259.928 430.262C253.399 426.723 244.87 427.638 242.077 435.471C238.915 444.333 245.887 453.519 252.764 458.429C258.639 462.619 265.689 464.901 272.803 466.118C285.669 468.317 300.874 466.916 309.161 455.525C313.255 449.894 313.784 444.185 314.012 437.498" stroke="white" stroke-width="1.54021" stroke-miterlimit="10"/>
  <path d="M293.973 724.068C293.061 725.313 292.408 726.822 292.121 728.578C291.333 733.445 294.472 738.651 299.145 740.225C309.208 743.616 317.596 730.306 309.815 723.042C304.911 718.459 297.506 719.26 293.973 724.068Z" fill="#F2BB91"/>
  <rect x="25" y="530" width="88" height="88" fill="url(#pattern0)"/>
  <rect x="188" y="239" width="91" height="68" fill="url(#pattern1)"/>
  <path d="M354 978.716C368.875 945.974 396.328 913.51 417.851 898" stroke="white" stroke-width="1.54021" stroke-miterlimit="10"/>
  <path d="M345 949.804C361.043 927.514 385.6 904.845 403.737 892" stroke="white" stroke-width="1.54021" stroke-miterlimit="10"/>
  <path d="M7.74698 1160.23C6.49017 1160.76 5.42127 1161.75 4.88836 1163.12C2.89841 1168.24 9.68764 1172.35 13.3287 1168.35C14.9829 1166.53 15.4357 1163.67 13.8462 1161.65C12.3337 1159.72 9.79238 1159.36 7.74698 1160.23Z" fill="white"/>
  <path d="M18.5722 928.116C19.561 928.169 23.7997 927.524 23.7997 927.524C23.7997 927.524 21.4093 929.465 21.0304 929.78C19.1328 931.377 17.3616 933.205 16.265 935.397C15.0205 937.885 15.1221 940.433 15.2577 943.113C15.31 944.176 15.27 944.88 15.3439 945.942C15.3871 946.547 15.5072 947.516 15.6181 948.832C14.1734 946.409 12.55 943.858 10.6432 941.738C7.15619 937.864 2.09199 937.377 -2.99994 937.514C-1.9372 936.568 -1.22254 935.914 -0.957623 935.66C-0.393907 935.126 0.308424 934.44 0.829014 933.868C1.79935 932.802 2.69267 931.911 3.36112 930.647C5.62214 926.37 4.53168 921.708 4.48547 917.095C5.27714 918.319 5.5975 918.865 5.92402 919.381C7.35642 921.664 8.86273 923.971 11.0406 925.687C13.2154 927.407 15.7813 927.97 18.5722 928.116Z" fill="#EFDDA2"/>
  <defs>
    <pattern id="pattern0" patternContentUnits="objectBoundingBox" width="1" height="1">
      <use xlink:href="#image0_401_218" transform="scale(0.00111111)"/>
    </pattern>
    <pattern id="pattern1" patternContentUnits="objectBoundingBox" width="1" height="1">
      <use xlink:href="#image1_401_218" transform="matrix(0.000833333 0 0 0.0011152 0 -0.00183824)"/>
    </pattern>
    <image id="image0_401_218" width="900" height="900"/>
    <image id="image1_401_218" width="1200" height="900"/>
  </defs>
</svg>
