<svg width="16" height="16" viewBox="0 0 16 16" fill="none" xmlns="http://www.w3.org/2000/svg">
<path d="M0 6.98182C0 4.53795 0 3.31602 0.475608 2.38259C0.893964 1.56152 1.56152 0.893964 2.38259 0.475608C3.31602 0 4.53795 0 6.98182 0H9.01818C11.462 0 12.684 0 13.6174 0.475608C14.4385 0.893964 15.106 1.56152 15.5244 2.38259C16 3.31602 16 4.53795 16 6.98182V9.01818C16 11.462 16 12.684 15.5244 13.6174C15.106 14.4385 14.4385 15.106 13.6174 15.5244C12.684 16 11.462 16 9.01818 16H6.98182C4.53795 16 3.31602 16 2.38259 15.5244C1.56152 15.106 0.893964 14.4385 0.475608 13.6174C0 12.684 0 11.462 0 9.01818V6.98182Z" fill="#FF335F"/>
<path d="M12.5905 8.35239C12.5639 7.08349 12.0349 5.87634 11.1186 4.99331C10.2024 4.11028 8.97286 3.62274 7.6973 3.63664C6.42174 3.65055 5.20325 4.16478 4.30665 5.06758C3.41005 5.97037 2.90781 7.18876 2.90909 8.45794H4.8457C4.83163 9.4797 5.2261 10.4652 5.94232 11.1976C6.65854 11.93 7.63785 12.3493 8.66481 12.3633C9.69177 12.3773 10.6823 11.9848 11.4184 11.2722C12.1545 10.5596 12.5759 9.58525 12.59 8.56348C12.59 8.52813 12.59 8.49171 12.59 8.45794C12.59 8.42416 12.5916 8.38774 12.5905 8.35239ZM8.71839 10.3869C8.33536 10.3869 7.96094 10.2738 7.64246 10.0621C7.32399 9.85041 7.07577 9.54948 6.92919 9.1974C6.78262 8.84533 6.74426 8.45791 6.81899 8.08414C6.89371 7.71038 7.07816 7.36706 7.349 7.09759C7.61984 6.82812 7.96491 6.64461 8.34057 6.57026C8.71624 6.49592 9.10562 6.53407 9.45949 6.67991C9.81336 6.82575 10.1158 7.07271 10.3286 7.38957C10.5414 7.70643 10.655 8.07896 10.655 8.46005C10.6549 8.97093 10.4508 9.46086 10.0878 9.82216C9.72477 10.1835 9.2324 10.3866 8.71892 10.3869H8.71839Z" fill="white"/>
</svg>
