<svg width="81" height="12" viewBox="0 0 81 12" fill="none" xmlns="http://www.w3.org/2000/svg">
<path d="M13.2769 6.48455C13.2403 4.73981 12.515 3.07998 11.2584 1.86582C10.0019 0.651651 8.31571 -0.0187232 6.56644 0.000398099C4.81717 0.0195194 3.14616 0.726591 1.91658 1.96793C0.687006 3.20927 -0.00175224 4.88456 3.34792e-06 6.62968H2.65582C2.63653 8.0346 3.17749 9.38962 4.15971 10.3967C5.14192 11.4037 6.48492 11.9803 7.89327 11.9995C9.30162 12.0187 10.6599 11.4791 11.6694 10.4993C12.6789 9.51946 13.2569 8.17973 13.2762 6.77481C13.2762 6.72619 13.2762 6.67612 13.2762 6.62968C13.2762 6.58323 13.2784 6.53316 13.2769 6.48455ZM7.96674 9.28193C7.44147 9.28193 6.92799 9.12655 6.49124 8.83544C6.0545 8.54432 5.71409 8.13055 5.51308 7.64644C5.31207 7.16234 5.25947 6.62964 5.36195 6.11571C5.46442 5.60179 5.71737 5.12972 6.08879 4.7592C6.46021 4.38868 6.93344 4.13635 7.44861 4.03413C7.96379 3.9319 8.49779 3.98437 8.98308 4.18489C9.46836 4.38542 9.88315 4.72499 10.175 5.16068C10.4668 5.59636 10.6226 6.10858 10.6226 6.63258C10.6224 7.33505 10.3426 8.0087 9.84473 8.50549C9.34687 9.00228 8.67165 9.28155 7.96746 9.28193H7.96674ZM51.0709 2.47967C48.7577 2.47967 46.8759 4.34314 46.8759 6.63258C46.8759 8.96047 48.7184 10.7848 51.0709 10.7848C53.4234 10.7848 55.2645 8.96119 55.2645 6.63258C55.2645 4.34314 53.3848 2.47967 51.0716 2.47967H51.0709ZM51.0709 9.0432C49.8343 9.0432 48.9359 7.94238 48.9359 6.63258C48.9359 5.32278 49.8336 4.22124 51.0709 4.22124C52.2792 4.22124 53.1899 5.34382 53.1899 6.63258C53.1906 7.94528 52.2995 9.0432 51.0716 9.0432H51.0709ZM32.6351 2.65746L32.6249 3.58121L32.4525 3.37368C32.0568 2.90055 31.2988 2.4775 30.1808 2.4775C28.12 2.4775 26.4426 4.34097 26.4426 6.6304C26.4426 8.91984 28.12 10.7826 30.1808 10.7826C31.2988 10.7826 32.0568 10.3603 32.4525 9.88713L32.6256 9.68032L32.6358 10.6033H34.6726V2.65746H32.6351ZM32.7559 6.63403C32.7559 7.9939 31.92 9.04537 30.6529 9.04537C29.3857 9.04537 28.5019 7.9939 28.5019 6.63403C28.5019 5.27416 29.3864 4.22269 30.6529 4.22269C31.9193 4.22269 32.7559 5.27416 32.7559 6.63403ZM70.7222 2.65746L70.7121 3.58121L70.5404 3.37368C70.1454 2.90055 69.3874 2.4775 68.2694 2.4775C66.2078 2.4775 64.5311 4.34097 64.5311 6.6304C64.5311 8.91984 66.2078 10.7826 68.2694 10.7826C69.3874 10.7826 70.1454 10.3603 70.5404 9.88713L70.7142 9.68032L70.7244 10.6033H72.7612V2.65746H70.7222ZM70.843 6.63403C70.843 7.9939 70.0072 9.04537 68.74 9.04537C67.4728 9.04537 66.589 7.9939 66.589 6.63403C66.589 5.27416 67.4736 4.22269 68.74 4.22269C70.0064 4.22269 70.843 5.27416 70.843 6.63403ZM21.4575 4.22124C20.2005 4.22124 19.3225 5.26327 19.3225 6.63258C19.3225 8.00188 20.2005 9.0432 21.4575 9.0432C22.3442 9.0432 23.0077 8.51928 23.3808 7.68841H25.4402C24.9368 9.63025 23.455 10.7848 21.4546 10.7848C19.0636 10.7848 17.2596 8.99965 17.2596 6.63258C17.2596 4.2655 19.0636 2.47967 21.4546 2.47967C23.455 2.47967 24.9368 3.63491 25.4402 5.57675H23.3808C23.0077 4.74588 22.3442 4.22124 21.4575 4.22124ZM40.9626 6.14857L43.6985 2.65891H45.4516V10.6055H43.4075V5.72188L40.9779 8.84219L38.533 5.72188V10.6033H36.4904V2.65891H38.2428L40.9626 6.14857ZM60.7129 6.5709L64.5682 10.6055H61.9568L58.7198 7.17246V10.6055H56.6757V2.65891H58.7198V6.14857L61.6178 2.65891H64.0256L60.7129 6.5709ZM76.5511 4.36999H74.1462V2.65891H81V4.36999H78.5951V10.6055H76.5511V4.36999Z" fill="#A6A6A6"/>
</svg>
