<svg width="110" height="16" viewBox="0 0 110 16" fill="none" xmlns="http://www.w3.org/2000/svg">
<path d="M18.0304 8.64606C17.9807 6.31975 16.9956 4.10664 15.2892 2.48776C13.5828 0.868868 11.2929 -0.0249643 8.91739 0.000530798C6.54184 0.0260259 4.27256 0.968788 2.60276 2.62391C0.932971 4.27903 -0.00237959 6.51275 4.54656e-06 8.83957H3.60667C3.58047 10.7128 4.31512 12.5195 5.64898 13.8622C6.98285 15.2049 8.80668 15.9737 10.7193 15.9993C12.6318 16.025 14.4765 15.3055 15.8474 13.999C17.2183 12.6926 18.0032 10.9063 18.0294 9.03308C18.0294 8.96825 18.0294 8.90149 18.0294 8.83957C18.0294 8.77765 18.0324 8.71089 18.0304 8.64606ZM10.819 12.3759C10.1057 12.3759 9.40838 12.1687 8.81527 11.7806C8.22216 11.3924 7.75988 10.8407 7.4869 10.1953C7.21392 9.54978 7.14249 8.83952 7.28166 8.15429C7.42082 7.46905 7.76432 6.83962 8.26873 6.3456C8.77313 5.85157 9.41578 5.51514 10.1154 5.37884C10.815 5.24254 11.5402 5.31249 12.1992 5.57986C12.8583 5.84722 13.4216 6.29999 13.8179 6.8809C14.2142 7.46182 14.4257 8.14478 14.4257 8.84344C14.4254 9.78006 14.0455 10.6783 13.3694 11.3407C12.6933 12.003 11.7763 12.3754 10.82 12.3759H10.819ZM69.3556 3.30623C66.2142 3.30623 63.6586 5.79086 63.6586 8.84344C63.6586 11.9473 66.1608 14.3797 69.3556 14.3797C72.5503 14.3797 75.0506 11.9483 75.0506 8.84344C75.0506 5.79086 72.4979 3.30623 69.3565 3.30623H69.3556ZM69.3556 12.0576C67.6762 12.0576 66.4562 10.5898 66.4562 8.84344C66.4562 7.09703 67.6752 5.62831 69.3556 5.62831C70.9964 5.62831 72.2332 7.12509 72.2332 8.84344C72.2342 10.5937 71.024 12.0576 69.3565 12.0576H69.3556ZM44.3193 3.54328L44.3055 4.77495L44.0713 4.49823C43.5339 3.8674 42.5046 3.30333 40.9862 3.30333C38.1876 3.30333 35.9096 5.78796 35.9096 8.84054C35.9096 11.8931 38.1876 14.3768 40.9862 14.3768C42.5046 14.3768 43.5339 13.8137 44.0713 13.1828L44.3064 12.9071L44.3203 14.1378H47.0863V3.54328H44.3193ZM44.4833 8.84537C44.4833 10.6585 43.3482 12.0605 41.6274 12.0605C39.9065 12.0605 38.7063 10.6585 38.7063 8.84537C38.7063 7.03221 39.9075 5.63025 41.6274 5.63025C43.3472 5.63025 44.4833 7.03221 44.4833 8.84537ZM96.0425 3.54328L96.0287 4.77495L95.7956 4.49823C95.2592 3.8674 94.2298 3.30333 92.7115 3.30333C89.9119 3.30333 87.6349 5.78796 87.6349 8.84054C87.6349 11.8931 89.9119 14.3768 92.7115 14.3768C94.2298 14.3768 95.2592 13.8137 95.7956 13.1828L96.0317 12.9071L96.0455 14.1378H98.8115V3.54328H96.0425ZM96.2065 8.84537C96.2065 10.6585 95.0715 12.0605 93.3506 12.0605C91.6298 12.0605 90.4295 10.6585 90.4295 8.84537C90.4295 7.03221 91.6308 5.63025 93.3506 5.63025C95.0705 5.63025 96.2065 7.03221 96.2065 8.84537ZM29.1398 5.62831C27.4328 5.62831 26.2405 7.01769 26.2405 8.84344C26.2405 10.6692 27.4328 12.0576 29.1398 12.0576C30.344 12.0576 31.245 11.359 31.7517 10.2512H34.5484C33.8648 12.8403 31.8525 14.3797 29.1359 14.3797C25.8888 14.3797 23.4389 11.9995 23.4389 8.84344C23.4389 5.68733 25.8888 3.30623 29.1359 3.30623C31.8525 3.30623 33.8648 4.84655 34.5484 7.43567H31.7517C31.245 6.32784 30.344 5.62831 29.1398 5.62831ZM55.6283 8.19809L59.3436 3.54521H61.7243V14.1407H58.9485V7.62918L55.649 11.7896L52.3288 7.62918V14.1378H49.5549V3.54521H51.9347L55.6283 8.19809ZM82.4496 8.7612L87.6853 14.1407H84.1389L79.7429 9.56328V14.1407H76.967V3.54521H79.7429V8.19809L83.6785 3.54521H86.9483L82.4496 8.7612ZM103.958 5.82666H100.692V3.54521H110V5.82666H106.734V14.1407H103.958V5.82666Z" fill="#FF335F"/>
</svg>
